<?xml version="1.0" standalone="no"?>
<!DOCTYPE svg PUBLIC "-//W3C//DTD SVG 20010904//EN"
 "http://www.w3.org/TR/2001/REC-SVG-20010904/DTD/svg10.dtd">
<svg version="1.0" xmlns="http://www.w3.org/2000/svg"
 width="500.000000pt" height="500.000000pt" viewBox="0 0 500.000000 500.000000"
 preserveAspectRatio="xMidYMid meet">

<g transform="translate(0.000000,500.000000) scale(0.100000,-0.100000)"
fill="#000000" stroke="none">
<path d="M2690 3698 c-57 -39 -75 -72 -75 -138 0 -44 5 -66 21 -87 74 -100
216 -99 275 2 24 41 47 44 84 13 36 -33 43 -90 27 -233 -18 -155 -12 -176 68
-245 78 -67 78 -85 6 -140 -81 -62 -91 -90 -77 -219 6 -59 11 -130 11 -159 0
-54 -19 -106 -42 -115 -8 -3 -166 224 -438 630 l-425 634 -80 -5 c-105 -7
-159 -35 -200 -101 -34 -55 -37 -96 -21 -320 l9 -120 -79 -65 c-103 -85 -105
-100 -28 -166 106 -91 104 -88 104 -146 0 -29 -5 -98 -11 -153 -9 -77 -9 -113
0 -158 21 -98 102 -166 198 -167 36 0 48 -6 82 -40 21 -22 51 -44 66 -50 141
-53 271 89 206 224 -29 59 -76 88 -141 88 -59 0 -107 -25 -135 -70 -22 -34
-32 -37 -68 -21 -57 26 -66 78 -45 273 10 101 9 115 -7 149 -9 20 -39 53 -66
73 -76 56 -75 74 7 149 l69 62 -1 69 c0 38 -4 119 -8 179 -7 101 -6 113 13
143 11 17 24 32 29 32 5 0 201 -286 436 -636 l428 -636 62 7 c97 10 134 24
176 61 56 51 74 113 66 223 -4 47 -9 125 -13 172 l-6 85 44 34 c78 59 119 103
119 126 0 15 -19 39 -56 71 -116 98 -107 84 -101 181 4 48 9 123 13 167 14
173 -54 263 -212 281 -45 6 -63 13 -77 31 -45 57 -147 72 -207 31z m136 -81
c71 -62 -12 -172 -95 -127 -10 5 -24 23 -31 40 -33 80 60 144 126 87z m-549
-1252 c29 -21 38 -66 19 -103 -39 -75 -146 -46 -146 40 0 48 28 78 73 78 18 0
42 -7 54 -15z"/>
</g>
</svg>
